<!DOCTYPE svg PUBLIC "-//W3C//DTD SVG 20010904//EN" "http://www.w3.org/TR/2001/REC-SVG-20010904/DTD/svg10.dtd">
<svg version="1.0" xmlns="http://www.w3.org/2000/svg" width="952px" height="118px" viewBox="0 0 9520 1180" preserveAspectRatio="xMidYMid meet">
<g id="layer101" fill="#010101" stroke="none">
 <path d="M0 590 l0 -590 4760 0 4760 0 0 590 0 590 -4760 0 -4760 0 0 -590z"/>
 </g>
<g id="layer102" fill="#ffffff" stroke="none">
 <path d="M0 590 l0 -590 4760 0 4760 0 0 590 0 590 -4760 0 -4760 0 0 -590z m2374 321 c8 -57 14 -61 102 -61 60 0 64 -1 70 -26 9 -34 -5 -42 -88 -50 -93 -9 -91 -29 3 -38 96 -10 121 -20 117 -49 -2 -16 -11 -23 -30 -25 -50 -6 -32 -46 25 -56 34 -6 38 -10 35 -34 -3 -23 -8 -27 -39 -30 -30 -3 -38 -8 -42 -28 -5 -26 -3 -28 46 -39 24 -5 28 -10 25 -33 -3 -24 -8 -28 -48 -32 -38 -4 -44 -8 -42 -25 2 -11 5 -21 6 -23 2 -1 40 -5 85 -9 80 -6 81 -6 81 -33 0 -24 -5 -28 -37 -34 -21 -3 -55 -6 -75 -6 -35 0 -38 -2 -38 -30 0 -26 -3 -30 -29 -30 -23 0 -31 6 -40 30 l-10 30 -85 0 -85 0 -7 -36 c-6 -32 -9 -35 -38 -32 -27 3 -32 7 -36 38 -5 35 -6 35 -63 41 -66 7 -82 18 -72 48 5 18 14 21 65 21 39 0 64 5 74 15 19 19 65 19 72 0 5 -11 23 -15 79 -15 70 0 73 1 77 25 l5 25 -126 0 c-146 0 -198 7 -205 26 -9 24 4 43 35 49 25 6 30 11 27 33 -2 22 -9 28 -38 32 -27 4 -36 10 -38 29 -4 28 12 41 51 41 20 0 27 5 27 20 0 14 -7 20 -24 20 -39 0 -56 11 -56 35 0 30 18 36 123 42 76 5 87 8 87 24 0 16 -8 19 -44 19 -24 0 -58 3 -75 6 -26 5 -31 11 -31 34 0 24 5 28 38 34 20 3 53 6 73 6 39 0 49 14 49 73 0 23 4 27 29 27 27 0 29 -3 35 -49z m552 2 c66 -65 100 -177 92 -293 l-4 -60 53 0 c59 0 69 13 22 29 -37 13 -37 44 1 49 53 8 47 41 -7 42 -18 0 -23 6 -23 25 0 14 -4 25 -9 25 -15 0 -30 101 -23 150 11 67 55 82 145 48 28 -11 33 -23 18 -47 -7 -10 -20 -12 -50 -7 -33 5 -41 3 -41 -9 0 -8 12 -17 28 -20 45 -10 92 -34 92 -47 -1 -35 -17 -42 -70 -32 -45 9 -53 9 -58 -5 -3 -9 -10 -20 -16 -24 -6 -5 18 -6 53 -3 35 3 76 6 90 6 l27 0 -1 85 c0 109 8 118 108 123 62 3 76 1 100 -18 16 -13 27 -31 27 -46 0 -20 -5 -24 -30 -24 -16 0 -30 5 -30 10 0 6 -23 10 -51 10 -36 0 -49 -4 -47 -12 3 -7 13 -14 24 -16 23 -3 94 -33 94 -39 0 -2 -5 -14 -11 -25 -9 -17 -17 -19 -49 -14 -21 3 -45 8 -53 12 -10 3 -16 -3 -19 -20 -5 -24 -3 -26 32 -26 79 0 120 -29 120 -85 0 -37 -50 -85 -89 -85 -17 0 -31 -4 -31 -10 0 -9 34 -17 95 -22 17 -2 31 -9 32 -18 6 -33 -13 -41 -111 -47 -90 -6 -125 -17 -73 -25 17 -2 23 -11 27 -37 3 -19 11 -37 19 -39 9 -3 12 0 8 10 -6 16 27 78 41 78 19 0 41 -35 32 -50 -14 -22 -12 -40 4 -34 8 3 16 20 18 37 2 27 8 33 31 35 26 3 27 2 27 -50 0 -71 -14 -89 -76 -96 -48 -6 -48 -6 -14 -12 27 -4 36 -10 38 -27 6 -39 -77 -56 -147 -32 -26 9 -30 15 -25 33 4 11 7 21 8 22 0 1 10 6 21 12 20 11 20 11 -1 12 -27 0 -54 40 -54 77 0 26 -4 28 -40 30 l-40 3 0 -44 c0 -53 -14 -66 -78 -74 -47 -6 -47 -6 -12 -12 29 -4 36 -10 38 -31 2 -20 -2 -28 -20 -33 -35 -9 -92 -7 -125 4 -25 9 -29 15 -25 35 3 16 11 25 23 25 30 0 31 17 1 23 -38 8 -56 44 -47 96 6 35 10 41 31 41 18 0 25 -7 30 -27 10 -47 13 -53 27 -53 9 0 13 8 10 23 -3 13 4 33 15 47 20 24 21 24 40 6 16 -14 19 -23 12 -42 -7 -19 -6 -24 5 -24 10 0 15 10 15 29 0 29 14 41 51 41 10 0 19 6 19 14 0 10 -26 14 -104 18 -57 3 -109 9 -115 12 -6 4 -11 40 -11 84 0 151 -30 255 -87 308 -23 21 -25 28 -15 48 14 32 42 25 88 -21z m2892 13 c60 -31 77 -97 42 -166 -22 -44 -31 -51 -74 -60 -26 -5 -31 -10 -31 -35 l0 -30 92 -9 c86 -9 92 -11 98 -34 3 -13 4 -26 2 -28 -2 -3 -42 -7 -88 -11 -88 -6 -109 -14 -109 -43 0 -13 11 -19 46 -25 28 -4 57 -17 76 -34 27 -24 32 -36 36 -87 3 -50 0 -63 -18 -87 -13 -16 -34 -33 -49 -39 -29 -11 -293 -11 -355 0 l-40 7 -3 84 c-3 88 -33 232 -57 279 -8 15 -33 48 -56 74 -30 35 -40 53 -35 68 29 91 215 -137 215 -263 0 -18 5 -19 61 -13 34 3 71 6 81 6 16 0 19 6 16 38 l-3 37 -68 7 c-91 9 -99 12 -95 45 3 28 3 28 91 31 79 3 87 5 87 23 0 14 -15 26 -53 43 -64 28 -92 66 -91 122 1 46 19 77 61 106 24 16 41 19 109 15 47 -3 94 -11 112 -21z m1725 9 c10 -5 17 -18 17 -35 0 -25 -4 -28 -46 -34 -26 -3 -62 -6 -80 -6 -22 0 -34 -5 -34 -13 0 -9 22 -17 63 -23 54 -8 62 -12 59 -29 -6 -41 -11 -45 -60 -45 -30 0 -54 -6 -61 -14 -9 -11 -1 -15 41 -24 36 -7 57 -7 65 0 15 12 63 -15 63 -36 0 -24 -45 -81 -67 -84 -14 -2 -27 5 -39 22 -15 24 -22 26 -91 26 -69 0 -74 -1 -62 -17 23 -27 75 -43 142 -43 36 0 79 -3 96 -6 29 -6 32 -10 29 -38 l-3 -31 -160 0 c-88 0 -177 4 -197 8 -34 7 -38 11 -38 37 0 23 5 30 20 30 24 0 25 8 5 34 -34 45 -2 106 54 106 78 0 80 26 2 33 -75 6 -81 10 -72 45 7 25 12 27 64 30 49 3 57 6 57 22 0 18 -7 20 -57 20 -86 0 -103 7 -103 40 0 19 6 30 18 34 23 7 353 -1 375 -9z m-2646 -20 c170 -50 245 -226 144 -338 -44 -49 -85 -67 -152 -67 l-51 0 53 -57 c92 -102 113 -159 67 -185 -27 -14 -255 -15 -303 -1 -33 10 -45 46 -26 80 8 17 18 18 83 12 40 -4 85 -5 100 -2 26 5 23 10 -92 131 -66 69 -120 133 -120 142 0 9 9 25 20 35 19 17 21 16 68 -14 57 -37 141 -57 194 -47 76 14 114 75 84 135 -22 41 -34 46 -45 18 -5 -13 -22 -34 -38 -47 -23 -18 -37 -21 -86 -18 -46 3 -63 10 -87 33 -25 24 -30 37 -30 76 0 102 92 151 217 114z m1814 -12 c71 -31 93 -75 97 -193 3 -84 1 -100 -20 -140 -22 -43 -43 -60 -100 -80 -24 -8 -28 -15 -28 -49 0 -42 10 -51 61 -51 25 0 29 -4 29 -29 0 -27 -4 -30 -42 -37 -51 -9 -253 -8 -308 1 -36 6 -40 10 -40 35 0 26 4 29 45 36 44 6 45 7 45 44 0 35 -3 40 -34 50 -18 6 -42 21 -54 33 -48 51 -53 189 -11 286 40 95 97 124 229 118 57 -3 101 -11 131 -24z m-2645 -12 c21 -13 38 -36 49 -66 14 -35 22 -44 34 -39 36 15 58 15 71 0 19 -24 0 -59 -50 -92 -28 -19 -40 -34 -40 -51 0 -37 -18 -63 -43 -63 -28 0 -47 17 -47 42 0 14 -8 18 -36 18 -109 0 -177 107 -129 201 34 64 128 89 191 50z m2158 -22 c56 -61 64 -85 38 -111 l-21 -21 -34 25 c-18 15 -44 47 -57 72 -24 45 -24 46 -5 60 30 23 39 20 79 -25z m799 -61 c55 -73 117 -238 117 -311 l0 -28 58 7 c100 14 244 9 279 -9 51 -27 76 -66 70 -111 -10 -76 -67 -105 -206 -106 -57 0 -233 17 -248 25 -1 0 -9 48 -18 105 -24 156 -53 266 -91 349 -26 57 -31 77 -23 92 14 28 35 23 62 -13z m-780 -182 c20 -30 8 -49 -47 -71 -35 -15 -40 -15 -57 1 -30 27 -23 48 24 71 54 28 62 28 80 -1z m-2470 -18 c14 -18 39 -61 58 -94 l33 -61 80 -6 c88 -6 109 -20 104 -67 -3 -23 -9 -26 -65 -34 l-63 -9 6 -37 c6 -34 4 -38 -24 -49 -38 -16 -45 -12 -79 49 -26 46 -31 50 -65 50 -61 0 -88 15 -88 49 0 31 14 47 46 53 21 3 21 3 -7 73 l-29 70 26 23 c33 29 38 28 67 -10z m535 -44 c29 -20 28 -41 -7 -95 -32 -50 -109 -129 -126 -129 -6 0 -22 11 -35 25 -24 25 -24 26 -7 58 23 43 125 157 141 157 6 0 22 -7 34 -16z m1964 -149 c13 -30 -5 -55 -53 -75 -25 -11 -32 -10 -49 5 -29 26 -25 41 17 70 47 32 70 32 85 0z"/>
 <path d="M2250 640 c0 -16 7 -20 30 -20 34 0 39 14 11 30 -29 15 -41 12 -41 -10z"/>
 <path d="M2394 645 c-8 -20 4 -35 27 -35 14 0 19 7 19 25 0 18 -5 25 -20 25 -11 0 -23 -7 -26 -15z"/>
 <path d="M2250 515 c0 -21 5 -25 30 -25 23 0 30 5 30 19 0 19 -18 31 -46 31 -8 0 -14 -10 -14 -25z"/>
 <path d="M2380 510 c0 -16 7 -20 35 -20 28 0 35 4 35 20 0 16 -7 20 -35 20 -28 0 -35 -4 -35 -20z"/>
 <path d="M3200 655 c0 -10 11 -15 35 -15 24 0 35 5 35 15 0 10 -11 15 -35 15 -24 0 -35 -5 -35 -15z"/>
 <path d="M3340 656 c0 -10 9 -16 21 -16 24 0 21 23 -4 28 -10 2 -17 -3 -17 -12z"/>
 <path d="M3191 572 c-27 -9 -7 -22 34 -22 25 0 45 4 45 9 0 9 -60 19 -79 13z"/>
 <path d="M5627 856 c-40 -40 -5 -96 60 -96 64 0 115 34 106 71 -6 22 -22 28 -93 36 -45 4 -60 2 -73 -11z"/>
 <path d="M5554 403 c-28 -4 -32 -9 -38 -44 -4 -22 -3 -45 0 -51 9 -13 267 -2 295 13 23 12 24 38 5 65 -13 17 -28 19 -123 20 -59 1 -122 0 -139 -3z"/>
 <path d="M4780 820 c-12 -7 -12 -13 -4 -27 15 -25 38 -27 59 -7 16 17 16 18 -1 31 -21 15 -34 16 -54 3z"/>
 <path d="M6496 842 c-22 -4 -42 -13 -44 -21 -3 -10 0 -12 12 -8 10 4 63 7 119 7 65 0 96 4 87 10 -22 12 -127 19 -174 12z"/>
 <path d="M6700 740 c0 -5 5 -10 10 -10 6 0 10 5 10 10 0 6 -4 10 -10 10 -5 0 -10 -4 -10 -10z"/>
 <path d="M6447 720 c49 -22 71 -59 80 -131 5 -39 10 -49 24 -49 16 0 19 8 19 55 0 66 24 121 59 133 17 6 -16 9 -99 10 l-125 1 42 -19z"/>
 <path d="M6397 623 c6 -52 18 -73 39 -73 16 0 8 64 -12 98 -23 36 -34 26 -27 -25z"/>
 <path d="M6693 662 c-32 -3 -33 -5 -33 -49 0 -37 3 -44 16 -39 9 3 19 6 23 6 8 0 37 78 30 83 -2 1 -19 1 -36 -1z"/>
 <path d="M6526 454 c-15 -39 -7 -54 29 -54 28 0 35 4 35 19 0 34 -12 51 -35 51 -13 0 -26 -7 -29 -16z"/>
 <path d="M3966 785 c-7 -18 19 -45 45 -45 21 0 24 12 9 41 -13 22 -45 25 -54 4z"/>
 <path d="M7150 371 l0 -41 118 0 c125 0 192 12 192 35 0 27 -44 38 -177 43 l-133 5 0 -42z"/>
 </g>

</svg>